<svg width="600" height="600" >
<rect width="600" height="600" fill="white" stroke="aqua" stroke-width="5"/>
<rect width="200" height="600" fill="transparent" stroke="aqua" stroke-width="5"/>
<rect width="600" height="300" fill="transparent" stroke="aqua" stroke-width="5"/>
<rect width="400" height="300" fill="white" stroke="aqua" stroke-width="5"/>
<defs>
    <mask id="mask1" width="600" height="600" >
        <rect x="0" y="0" width="400" height="300"
        style="stroke:none; fill: #ffffff"/>
    </mask>
    <mask id="mask2" width="600" height="600" >
        <rect x="404" y="5" width="190" height="290"
        style="stroke:none; fill: #ffffff"/>
    </mask>
    <mask id="mask3" width="600" height="600" >
        <rect x="0" y="300" width="200" height="300"
        style="stroke:none; fill: #ffffff"/>
    </mask>
    <mask id="mask4" width="600" height="600" >
        <rect x="0" y="0" width="1000" height="1000"
        style="stroke:none; fill: #ffffff"/>
    </mask>
</defs>
    <g id="picture1"> 
        <g stroke="green" mask="url(#mask1)">
            <circle cx="51%" cy="51%" r="10%" fill="transparent" stroke-width="3.4%" />
            <line stroke="red" x1="0" y1="0" x2="43.3%" y2="43.3%" stroke-width="20" />
            <line stroke="orange" x1="100%" y1="0%" x2="56.8%" y2="43.3%" stroke-width="15" />
            <rect x="38.6%" y="28.7%" width="25%" height="45%" fill="transparent" stroke-width="4%"/>
            <line stroke="yellow" x1="0%" y1="100%" x2="43.3%" y2="57.3%" stroke-width="10" />
            <line stroke="blue" x1="100%" y1="100%" x2="56.8%" y2="56.8%" stroke-width="25" />
        </g>
    </g>
    <g id="picture2">
        <g fill ="red" mask="url(#mask2)" >
            <rect x="0" y="0%" width="100%" height="100%" fill="gold" stroke-width="0%"/>
            <rect x="10%" y="10%" width="63%" height="160%" rx="15%" ry="25%" stroke-width="6%" stroke="black"/>
            <rect x="5%" y="35%" width="50%" height="29%" rx="5%" ry="5%" fill="royalblue" />
            <rect x="10%" y="42.5%" width="40%" height="15%" rx="3%" ry="3%" fill="lightskyblue" />
            <rect x="15%" y="45.5%" width="10%" height="5%" rx="3%" ry="3%" fill="white" />
            <rect x="73%" y="30%" width="17%" height="59%" rx="10%" ry="15%" stroke-width="6%" stroke="black"/>
        </g>
    </g>
    <g id="picture3" mask="url(#mask3)">
        <rect x="0" y="70%" width="100%" height="30%" fill="green" />
        <line stroke="forestgreen" x1="50%" y1="70%" x2="50%" y2="40%" stroke-width="25" />
        <circle cx="50%" cy="40%" r="4%" fill="yellow" stroke="black" stroke-width="3" />
        <g stroke="blue" stroke-width="0.2%">
            <ellipse cx="40%" cy="40%" rx="6%" ry="3%" fill="red" />
            <ellipse cx="60%" cy="40%" rx="6%" ry="3%" fill="red" />
            <ellipse cx="62%" cy="19.9%" rx="3%" ry="6%" fill="red" transform="rotate(30,1,1)"/>
            <ellipse cx="50%" cy="30%" rx="3%" ry="6%" fill="red" />
        </g>
    </g>
    <g id="picture4" transform="translate(300 125)" mask="url(#mask4)">
        <text fill="black" font-family="Verdana" font-size="40">
        <tspan fill="beige" x="20" y="300" rotate="5 -10 2 9 -35 90 1" font-family="cursive" stroke="aqua" stroke-width="0.2" 
        >Ярдыков</tspan>
        <tspan fill="blue" x="20" y="340" rotate="-5" font-family= "monospace" stroke="aqua" stroke-width="0.2" stroke-dasharray="12% 22%"
        >Э</tspan>
        <tspan fill="blue" x="40" y="340" rotate="10" font-family= "monospace" stroke="red" stroke-width="0.2" stroke-dasharray="12% 12% 75 1%"
        >д</tspan>
        <tspan fill="blue" x="60" y="340" rotate="12" font-family= "monospace" stroke="#64085d" stroke-width="1" stroke-dasharray="22% 12%"
        >у</tspan>
        <tspan fill="blue" x="80" y="340" rotate="-9" font-family= "monospace" stroke="yellow" stroke-width="0.2" stroke-dasharray="12% 22% 45%"
        >а</tspan>
        <tspan fill="blue" x="100" y="340" transform="translate(25 -95)" rotate="15" font-family= "monospace" stroke="brown" stroke-width="0.2" stroke-dasharray="3% 62% 55% 42%"
        >р</tspan>
        <tspan fill="blue" x="120" y="340" rotate="40" font-family= "monospace" stroke="purple" stroke-width="0.7" stroke-dasharray="12% 22% 45%"
        >д</tspan>
        <tspan fill="yellow" x="20" y="380" rotate="340 0 22 0 35 10 12 -1 32 -9" font-family="fantasy"
        >Евгеньевич</tspan>
    </text>
    </g>
</svg>