<?xml version="1.0" encoding="utf-8"?>
<!-- Generator: Adobe Illustrator 22.0.1, SVG Export Plug-In . SVG Version: 6.00 Build 0)  -->
<svg version="1.1" xmlns="http://www.w3.org/2000/svg" xmlns:xlink="http://www.w3.org/1999/xlink" x="0px" y="0px"
	 viewBox="0 0 1920 1080" style="enable-background:new 0 0 1920 1080;" xml:space="preserve">
<style type="text/css">
	.st0{fill:#FBB03B;}
	.st1{fill:#D8A484;}
</style>
<g id="Слой_2">
	<g>
		<g>
			<path class="st0" d="M720.5,478.2c-3.6,0-6.9-0.8-9.9-2.3c-8.8-4.5-13.8-15.2-14-30.1c-0.3-15,4.3-32.4,12.9-49
				c14.3-27.8,37-47.3,55.1-47.3c3.6,0,6.9,0.8,9.9,2.3c8.8,4.5,13.8,15.2,14,30.1c0.3,15-4.3,32.4-12.9,49
				C761.3,458.7,738.7,478.2,720.5,478.2C720.5,478.2,720.5,478.2,720.5,478.2z"/>
			<path d="M764.6,350c3.5,0,6.8,0.8,9.7,2.2c18,9.3,18.4,44.4,0.9,78.4c-14.3,27.7-36.7,47-54.7,47c-3.5,0-6.8-0.8-9.7-2.2
				c-18-9.3-18.4-44.4-0.9-78.4C724.2,369.3,746.7,350,764.6,350 M764.6,349c-17.9,0-40.8,18.8-55.6,47.6
				c-17.8,34.5-17.2,70.2,1.4,79.7c3.1,1.6,6.5,2.4,10.1,2.4c17.9,0,40.8-18.8,55.6-47.6c17.8-34.5,17.2-70.2-1.4-79.7
				C771.7,349.7,768.2,349,764.6,349L764.6,349z"/>
		</g>
		<g>
			<path class="st0" d="M646.6,484.2c-18.1,0-40.8-19.5-55.1-47.3c-8.6-16.6-13.1-34-12.9-49c0.3-14.9,5.2-25.5,14-30.1
				c3-1.5,6.3-2.3,9.9-2.3c18.1,0,40.8,19.5,55.1,47.3c17.6,34.2,17.1,69.7-1.2,79.1C653.6,483.4,650.2,484.2,646.6,484.2z"/>
			<path d="M602.5,355v1c17.9,0,40.4,19.3,54.7,47c17.5,34,17.1,69.1-0.9,78.4c-2.9,1.5-6.1,2.2-9.7,2.2c-18,0-40.4-19.3-54.7-47
				c-17.5-34-17.1-69.1,0.9-78.4c2.9-1.5,6.1-2.2,9.7-2.2L602.5,355 M602.5,355c-3.6,0-7,0.8-10.1,2.4c-18.5,9.5-19.1,45.2-1.4,79.7
				c14.8,28.7,37.7,47.6,55.6,47.6c3.6,0,7-0.8,10.1-2.4c18.5-9.5,19.1-45.2,1.4-79.7C643.3,373.8,620.5,355,602.5,355L602.5,355z"
				/>
		</g>
		<g>
			<circle class="st0" cx="687" cy="481" r="99.5"/>
			<path d="M687,382c54.6,0,99,44.4,99,99s-44.4,99-99,99s-99-44.4-99-99S632.4,382,687,382 M687,381c-55.2,0-100,44.8-100,100
				s44.8,100,100,100s100-44.8,100-100S742.2,381,687,381L687,381z"/>
		</g>
	</g>
	<g>
		<path class="st0" d="M912.9,524.8c-1.9,0-3.6-0.5-4.9-1.4c-5.2-3.8-4.9-15.2,0.9-31.3c6-16.6,16.9-36.5,30.9-56
			c24.8-34.6,53.1-59.8,67.5-59.8c1.9,0,3.6,0.5,4.9,1.4c11.2,8-3.1,47.2-31.8,87.3C955.6,499.7,927.2,524.8,912.9,524.8z"/>
		<path d="M1007.3,375.8v1c1.8,0,3.4,0.4,4.6,1.3c5.1,3.6,4.7,14.8-1.1,30.8c-6,16.5-16.9,36.4-30.8,55.9
			c-24.7,34.5-52.9,59.6-67.1,59.6c-1.8,0-3.4-0.4-4.6-1.3c-5.1-3.6-4.7-14.8,1.1-30.8c6-16.5,16.9-36.4,30.8-55.9
			c24.7-34.5,52.9-59.6,67.1-59.6L1007.3,375.8 M1007.3,375.8c-14.3,0-42.5,24.5-67.9,60c-28.9,40.5-43.1,79.9-31.7,88
			c1.4,1,3.1,1.5,5.1,1.5c14.3,0,42.5-24.5,67.9-60c28.9-40.5,43.1-79.9,31.7-88C1011,376.3,1009.3,375.8,1007.3,375.8L1007.3,375.8
			z"/>
	</g>
</g>
<g id="Слой_1">
	<g>
		
			<rect x="938.6" y="448.4" transform="matrix(0.7071 -0.7071 0.7071 0.7071 -25.8367 879.7905)" class="st1" width="221" height="45.4"/>
		<path d="M1111.2,377.6l31.4,31.4L987,564.6l-31.4-31.4L1111.2,377.6 M1111.2,376.2l-157,157L987,566l157-157L1111.2,376.2
			L1111.2,376.2z"/>
	</g>
	<g>
		
			<rect x="501.4" y="360.6" transform="matrix(0.7071 -0.7071 0.7071 0.7071 -179.6055 508.5594)" class="st1" width="45.4" height="221"/>
		<path d="M462,377.6l155.6,155.6l-31.4,31.4L430.6,409L462,377.6 M462,376.2L429.2,409l157,157l32.8-32.8L462,376.2L462,376.2z"/>
	</g>
	<g>
		<rect x="524.5" y="471.5" class="st1" width="524" height="227"/>
		<path d="M1048,472v226H525V472H1048 M1049,471H524v228h525V471L1049,471z"/>
	</g>
</g>
</svg>
