<svg width="100%" height="100%" xmlns="http://www.w3.org/2000/svg" viewBox="-200 0 500 500" >
    <g fill="transparent" stroke="royalBlue" stroke-width="3" stroke-opacity="0.5">
        <path d="M22 50L30 68H49V60"/>
        <path d="M11 11L17.5 0H28L38 10V13H20L13 10"/>
        <path d="M40 14.5V30L25 40H10L30 25V14.5" 
        fill="royalBlue" fill-opacity="0.5" stroke-opacity="0"/>
        <path d="M10 42H40L60 57H75L50 78H30L12 59V40" stroke-width="4"/>
    </g> 

    <path d="M50 80V90L40 100V90H50" fill="orange" stroke="#cc5526"/>
    <path d="M30 80V90L20 100V90H30" fill="orange" stroke="#cc5526"/>

    <path d="M0 15H30V25L10 40V60L30 80H50L80 55H60L40 40H25
    L40 30V10L30 0H16L10 10Z" fill="transparent" stroke="royalBlue"/>
    <path d="M20 50L30 70H50V60" fill="transparent" stroke="royalBlue"/>

    <path d="M0 15L10 10L20 15Z" fill="orange" stroke="#cc5526"/>
    <circle cx="20" cy="5" r="1" fill="#cc5526"/>
</svg>
