<svg width="100%" height="100%" xmlns="http://www.w3.org/2000/svg">
    <g fill="transparent" stroke="royalBlue" stroke-width="3" stroke-opacity="0.5">
        <path d="M 22 50 L 30 68 H 49 V 60 " />
        <path d="M 11 11 L 17.5 0 H 28 L 38 10 V 13 H 20 L 13 10" />
        <path d="M 40 14.5 V 30 L 25 40 H 10 L 30 25 V 14.5" 
        fill="royalBlue" fill-opacity="0.5" stroke-opacity="0" />
        <path d="M 10 42 H 40 L 60 57 H 75 L 50 78 H 30 L 12 59 V 40" stroke-width="4"/>
    </g> 

    <path d="M 0 15 H 30 V 25 L 10 40 V 60 L 30 80 H 50 L 80 55 H 60 L 40 40 H 25
    L 40 30 V 10 L 30 0 H 16 L 10 10 Z" fill="transparent" stroke="royalBlue"/>
    <path d="M 20 50 L 30 70 H 50 V 60 " fill="transparent" stroke="royalBlue" />

    <path d="M 0 15 L 10 10 L 20 15 Z" fill="orange" stroke= "#cc5526" />
    <circle cx="20" cy="5" r="1" fill="#cc5526" />

    <path d="M 50 80 V 90 L 40 100 V 90 H 50" fill="orange" stroke="#cc5526" />
    <path d="M 30 80 V 90 L 20 100 V 90 H 30" fill="orange" stroke="#cc5526" />
</svg>
